<svg role="img" viewBox="0 0 24 24" xmlns="http://www.w3.org/2000/svg" fill="currentColor"><title>Ubisoft</title><path d="M23.561 10.49a10.592 10.592 0 0 0-.933-2.09 11.036 11.036 0 0 0-1.363-1.86 11.654 11.654 0 0 0-1.745-1.559 12.044 12.044 0 0 0-2.044-1.211 12.127 12.127 0 0 0-4.649-.99h-.033a12.156 12.156 0 0 0-4.649.99 12.122 12.122 0 0 0-2.044 1.211 11.65 11.65 0 0 0-1.745 1.559 11.033 11.033 0 0 0-1.364 1.86 10.593 10.593 0 0 0-.932 2.09 10.252 10.252 0 0 0-.439 2.178 9.92 9.92 0 0 0 .159 2.247 10.23 10.23 0 0 0 .695 2.149 10.79 10.79 0 0 0 1.16 1.966 11.41 11.41 0 0 0 1.555 1.721 12.064 12.064 0 0 0 1.888 1.413 12.398 12.398 0 0 0 2.146 1.041c.75.282 1.548.489 2.367.603a12.746 12.746 0 0 0 2.5.064H12a12.133 12.133 0 0 0 2.367-.603 12.398 12.398 0 0 0 2.146-1.041A12.064 12.064 0 0 0 18.4 19.2a11.41 11.41 0 0 0 1.556-1.72 10.79 10.79 0 0 0 1.16-1.967c.31-.683.546-1.399.695-2.148a9.92 9.92 0 0 0 .159-2.247 10.249 10.249 0 0 0-.409-2.628zM12.099 21.03c-.08 0-.162.002-.242.004-3.87-.04-7.209-2.474-8.538-5.912 1.048 1.126 2.52 1.881 4.14 2.171a7.396 7.396 0 0 0 8.215-4.783 7.396 7.396 0 0 0-3.92-9.125c3.708.595 6.74 3.143 7.77 6.636.098.332.184.677.248 1.027.01.011.01.023.011.035a8.883 8.883 0 0 1-.418 4.318 8.94 8.94 0 0 1-7.266 5.629zm-4.825-5.455a5.209 5.209 0 0 1-1.323-.88 5.19 5.19 0 0 1-1.566-2.787 5.09 5.09 0 0 1 .165-2.548 5.19 5.19 0 0 1 1.683-2.45 5.29 5.29 0 0 1 2.806-1.234 5.302 5.302 0 0 1 5.49 3.222 5.207 5.207 0 0 1-.69 5.11 5.24 5.24 0 0 1-2.6 1.87 5.267 5.267 0 0 1-3.965-.303z"/></svg>